# xmcd CD database file
# Copyright (C) 1993-2000  Ti Kan
#
# Track frame offsets:
#	150
#	45721
#	76247
#	88848
#	156814
#
# Disc length: 2482 seconds
#
# Revision: 1
# Processed by: cddbd v1.4PL0 Copyright (c) Steve Scherf et al.
# Submitted via: xmcd 2.6 PL0
#
DISCID=3209b005
DTITLE=Cream - The Best of Cream Live - 1970
DYEAR=1900
DGENRE=
TTITLE0=N.S.U.
TTITLE1=Sleepy Time Time
TTITLE2=Lawdy Mama
TTITLE3=Sweet Wine
TTITLE4=Rollin' and Tumblin'
EXTD=Jack Bruce\n
EXTD=Ginger Baker\n
EXTD=Eric Clapton\n
EXTD=\n1970
EXTT0=(Jack Bruce)
EXTT1=(Jack Bruce - Godfrey)
EXTT2=(Trad.-Arr. Eric Clapton)
EXTT3=(Ginger Baker - Godfrey)
EXTT4=(Muddy Waters)
PLAYORDER=
